<mxfile host="Electron" modified="2024-06-01T10:55:45.502Z" agent="Mozilla/5.0 (Windows NT 10.0; Win64; x64) AppleWebKit/537.36 (KHTML, like Gecko) draw.io/24.4.13 Chrome/124.0.6367.207 Electron/30.0.6 Safari/537.36" etag="4aiwDcfMketZs9r-FeQn" version="24.4.13" type="device">
  <diagram name="페이지-1" id="OMFwIMUGjbaWBI-Hc2kO">
    <mxGraphModel dx="712" dy="827" grid="1" gridSize="10" guides="1" tooltips="1" connect="1" arrows="1" fold="1" page="1" pageScale="1" pageWidth="827" pageHeight="1169" math="0" shadow="0">
      <root>
        <mxCell id="0" />
        <mxCell id="1" parent="0" />
        <mxCell id="yvwCRGg2z9xxAc4UsZOk-3" value="" style="edgeStyle=orthogonalEdgeStyle;rounded=0;orthogonalLoop=1;jettySize=auto;html=1;" edge="1" parent="1" source="yvwCRGg2z9xxAc4UsZOk-1" target="yvwCRGg2z9xxAc4UsZOk-2">
          <mxGeometry relative="1" as="geometry" />
        </mxCell>
        <mxCell id="yvwCRGg2z9xxAc4UsZOk-1" value="Actor" style="shape=umlActor;verticalLabelPosition=bottom;verticalAlign=top;html=1;outlineConnect=0;" vertex="1" parent="1">
          <mxGeometry x="80" y="120" width="30" height="60" as="geometry" />
        </mxCell>
        <mxCell id="yvwCRGg2z9xxAc4UsZOk-5" value="" style="edgeStyle=orthogonalEdgeStyle;rounded=0;orthogonalLoop=1;jettySize=auto;html=1;" edge="1" parent="1" source="yvwCRGg2z9xxAc4UsZOk-2" target="yvwCRGg2z9xxAc4UsZOk-4">
          <mxGeometry relative="1" as="geometry" />
        </mxCell>
        <mxCell id="yvwCRGg2z9xxAc4UsZOk-2" value="Logins" style="ellipse;whiteSpace=wrap;html=1;verticalAlign=top;" vertex="1" parent="1">
          <mxGeometry x="180" y="130" width="70" height="40" as="geometry" />
        </mxCell>
        <mxCell id="yvwCRGg2z9xxAc4UsZOk-11" value="" style="edgeStyle=orthogonalEdgeStyle;rounded=0;orthogonalLoop=1;jettySize=auto;html=1;" edge="1" parent="1" source="yvwCRGg2z9xxAc4UsZOk-4" target="yvwCRGg2z9xxAc4UsZOk-10">
          <mxGeometry relative="1" as="geometry" />
        </mxCell>
        <mxCell id="yvwCRGg2z9xxAc4UsZOk-4" value="Access&lt;br&gt;MainUI" style="ellipse;whiteSpace=wrap;html=1;verticalAlign=top;" vertex="1" parent="1">
          <mxGeometry x="330" y="130" width="70" height="40" as="geometry" />
        </mxCell>
        <mxCell id="yvwCRGg2z9xxAc4UsZOk-13" value="" style="edgeStyle=orthogonalEdgeStyle;rounded=0;orthogonalLoop=1;jettySize=auto;html=1;" edge="1" parent="1" source="yvwCRGg2z9xxAc4UsZOk-10" target="yvwCRGg2z9xxAc4UsZOk-12">
          <mxGeometry relative="1" as="geometry" />
        </mxCell>
        <mxCell id="yvwCRGg2z9xxAc4UsZOk-10" value="Access&amp;nbsp;&lt;br&gt;Search UI" style="ellipse;whiteSpace=wrap;html=1;verticalAlign=top;" vertex="1" parent="1">
          <mxGeometry x="320" y="220" width="90" height="40" as="geometry" />
        </mxCell>
        <mxCell id="yvwCRGg2z9xxAc4UsZOk-15" value="" style="edgeStyle=orthogonalEdgeStyle;rounded=0;orthogonalLoop=1;jettySize=auto;html=1;" edge="1" parent="1" source="yvwCRGg2z9xxAc4UsZOk-12" target="yvwCRGg2z9xxAc4UsZOk-14">
          <mxGeometry relative="1" as="geometry" />
        </mxCell>
        <mxCell id="yvwCRGg2z9xxAc4UsZOk-12" value="inputs&amp;nbsp;&lt;br&gt;KeyWords" style="ellipse;whiteSpace=wrap;html=1;verticalAlign=top;" vertex="1" parent="1">
          <mxGeometry x="320" y="300" width="90" height="40" as="geometry" />
        </mxCell>
        <mxCell id="yvwCRGg2z9xxAc4UsZOk-14" value="refreshTable&lt;div&gt;with Keyword()&lt;/div&gt;" style="ellipse;whiteSpace=wrap;html=1;verticalAlign=top;" vertex="1" parent="1">
          <mxGeometry x="490" y="300" width="100" height="40" as="geometry" />
        </mxCell>
      </root>
    </mxGraphModel>
  </diagram>
</mxfile>
